<svg width="40" height="20" viewBox="0 0 40 20" fill="none" xmlns="http://www.w3.org/2000/svg">
<g clip-path="url(#clip0_502_651)">
<path fill-rule="evenodd" clip-rule="evenodd" d="M8 4C6.93913 4 5.92172 4.42143 5.17157 5.17157C4.42143 5.92172 4 6.93913 4 8C4 9.06087 4.42143 10.0783 5.17157 10.8284C5.92172 11.5786 6.93913 12 8 12C9.06087 12 10.0783 11.5786 10.8284 10.8284C11.5786 10.0783 12 9.06087 12 8C12 6.93913 11.5786 5.92172 10.8284 5.17157C10.0783 4.42143 9.06087 4 8 4ZM2 8C1.99988 7.0557 2.22264 6.12471 2.65017 5.28274C3.0777 4.44077 3.69792 3.7116 4.4604 3.15453C5.22287 2.59745 6.10606 2.22821 7.03815 2.07683C7.97023 1.92545 8.92488 1.99621 9.82446 2.28335C10.724 2.57049 11.5432 3.0659 12.2152 3.7293C12.8872 4.39269 13.3931 5.20533 13.6919 6.10113C13.9906 6.99693 14.0737 7.95059 13.9343 8.88455C13.795 9.81851 13.4372 10.7064 12.89 11.476L17.707 16.293C17.8892 16.4816 17.99 16.7342 17.9877 16.9964C17.9854 17.2586 17.8802 17.5094 17.6948 17.6948C17.5094 17.8802 17.2586 17.9854 16.9964 17.9877C16.7342 17.99 16.4816 17.8892 16.293 17.707L11.477 12.891C10.5794 13.5293 9.52335 13.9082 8.42468 13.9861C7.326 14.0641 6.22707 13.8381 5.2483 13.333C4.26953 12.8278 3.44869 12.063 2.87572 11.1224C2.30276 10.1817 1.99979 9.10143 2 8Z" fill="#CBD3D6"/>
<path fill-rule="evenodd" clip-rule="evenodd" d="M28 4C26.9391 4 25.9217 4.42143 25.1716 5.17157C24.4214 5.92172 24 6.93913 24 8C24 9.06087 24.4214 10.0783 25.1716 10.8284C25.9217 11.5786 26.9391 12 28 12C29.0609 12 30.0783 11.5786 30.8284 10.8284C31.5786 10.0783 32 9.06087 32 8C32 6.93913 31.5786 5.92172 30.8284 5.17157C30.0783 4.42143 29.0609 4 28 4ZM22 8C21.9999 7.0557 22.2226 6.12471 22.6502 5.28274C23.0777 4.44077 23.6979 3.7116 24.4604 3.15453C25.2229 2.59745 26.1061 2.22821 27.0381 2.07683C27.9702 1.92545 28.9249 1.99621 29.8245 2.28335C30.724 2.57049 31.5432 3.0659 32.2152 3.7293C32.8872 4.39269 33.3931 5.20533 33.6919 6.10113C33.9906 6.99693 34.0737 7.95059 33.9343 8.88455C33.795 9.81851 33.4372 10.7064 32.89 11.476L37.707 16.293C37.8892 16.4816 37.99 16.7342 37.9877 16.9964C37.9854 17.2586 37.8802 17.5094 37.6948 17.6948C37.5094 17.8802 37.2586 17.9854 36.9964 17.9877C36.7342 17.99 36.4816 17.8892 36.293 17.707L31.477 12.891C30.5794 13.5293 29.5233 13.9082 28.4247 13.9861C27.326 14.0641 26.2271 13.8381 25.2483 13.333C24.2695 12.8278 23.4487 12.063 22.8757 11.1224C22.3028 10.1817 21.9998 9.10143 22 8Z" fill="#7F909D"/>
</g>
<defs>
<clipPath id="clip0_502_651">
<rect width="40" height="20" fill="white"/>
</clipPath>
</defs>
</svg>
