<svg width="96" height="25" viewBox="0 0 96 25" fill="none" xmlns="http://www.w3.org/2000/svg">
<circle cx="12" cy="12" r="12" fill="#38AB3D"/>
<g filter="url(#filter0_d_985_748)">
<path fill-rule="evenodd" clip-rule="evenodd" d="M18.707 7.29303C18.8945 7.48056 18.9998 7.73487 18.9998 8.00003C18.9998 8.26519 18.8945 8.5195 18.707 8.70703L10.707 16.707C10.5195 16.8945 10.2652 16.9998 10 16.9998C9.73488 16.9998 9.48057 16.8945 9.29304 16.707L5.29304 12.707C5.11088 12.5184 5.01009 12.2658 5.01237 12.0036C5.01465 11.7414 5.11981 11.4906 5.30522 11.3052C5.49063 11.1198 5.74144 11.0146 6.00364 11.0124C6.26584 11.0101 6.51844 11.1109 6.70704 11.293L10 14.586L17.293 7.29303C17.4806 7.10556 17.7349 7.00024 18 7.00024C18.2652 7.00024 18.5195 7.10556 18.707 7.29303Z" fill="white"/>
</g>
<circle cx="36" cy="12" r="12" fill="#E6A23C"/>
<g filter="url(#filter1_d_985_748)">
<path d="M34.5 4H37.5L37 14H35L34.5 4Z" fill="white"/>
<path d="M37.5 17.5C37.5 18.3284 36.8284 19 36 19C35.1716 19 34.5 18.3284 34.5 17.5C34.5 16.6716 35.1716 16 36 16C36.8284 16 37.5 16.6716 37.5 17.5Z" fill="white"/>
</g>
<circle cx="60" cy="12" r="12" fill="#D64545"/>
<g filter="url(#filter2_d_985_748)">
<path d="M60 4C64.4183 4 68 7.58172 68 12C68 16.4183 64.4183 20 60 20C55.5817 20 52 16.4183 52 12C52 7.58172 55.5817 4 60 4ZM56.5244 16.8896C57.5052 17.5881 58.7042 18 60 18C63.3137 18 66 15.3137 66 12C66 10.7042 65.5881 9.50521 64.8896 8.52441L56.5244 16.8896ZM60 6C56.6863 6 54 8.68629 54 12C54 13.2953 54.4114 14.494 55.1094 15.4746L63.4746 7.11035C62.4939 6.41222 61.2955 6 60 6Z" fill="white"/>
</g>
<circle cx="84" cy="12" r="12" fill="#357ABD"/>
<g filter="url(#filter3_d_985_748)">
<path d="M85 17H88V18C88 18.5523 87.5523 19 87 19H81C80.4477 19 80 18.5523 80 18V17H83V11H82C81.4477 11 81 10.5523 81 10V9H85V17Z" fill="white"/>
<path d="M85.5 5.5C85.5 6.32843 84.8284 7 84 7C83.1716 7 82.5 6.32843 82.5 5.5C82.5 4.67157 83.1716 4 84 4C84.8284 4 85.5 4.67157 85.5 5.5Z" fill="white"/>
</g>
<defs>
<filter id="filter0_d_985_748" x="3.01233" y="7.00024" width="17.9875" height="14.9995" filterUnits="userSpaceOnUse" color-interpolation-filters="sRGB">
<feFlood flood-opacity="0" result="BackgroundImageFix"/>
<feColorMatrix in="SourceAlpha" type="matrix" values="0 0 0 0 0 0 0 0 0 0 0 0 0 0 0 0 0 0 127 0" result="hardAlpha"/>
<feOffset dy="3"/>
<feGaussianBlur stdDeviation="1"/>
<feComposite in2="hardAlpha" operator="out"/>
<feColorMatrix type="matrix" values="0 0 0 0 0 0 0 0 0 0 0 0 0 0 0 0 0 0 0.25 0"/>
<feBlend mode="normal" in2="BackgroundImageFix" result="effect1_dropShadow_985_748"/>
<feBlend mode="normal" in="SourceGraphic" in2="effect1_dropShadow_985_748" result="shape"/>
</filter>
<filter id="filter1_d_985_748" x="32.5" y="4" width="7" height="20" filterUnits="userSpaceOnUse" color-interpolation-filters="sRGB">
<feFlood flood-opacity="0" result="BackgroundImageFix"/>
<feColorMatrix in="SourceAlpha" type="matrix" values="0 0 0 0 0 0 0 0 0 0 0 0 0 0 0 0 0 0 127 0" result="hardAlpha"/>
<feOffset dy="3"/>
<feGaussianBlur stdDeviation="1"/>
<feComposite in2="hardAlpha" operator="out"/>
<feColorMatrix type="matrix" values="0 0 0 0 0 0 0 0 0 0 0 0 0 0 0 0 0 0 0.25 0"/>
<feBlend mode="normal" in2="BackgroundImageFix" result="effect1_dropShadow_985_748"/>
<feBlend mode="normal" in="SourceGraphic" in2="effect1_dropShadow_985_748" result="shape"/>
</filter>
<filter id="filter2_d_985_748" x="50" y="4" width="20" height="21" filterUnits="userSpaceOnUse" color-interpolation-filters="sRGB">
<feFlood flood-opacity="0" result="BackgroundImageFix"/>
<feColorMatrix in="SourceAlpha" type="matrix" values="0 0 0 0 0 0 0 0 0 0 0 0 0 0 0 0 0 0 127 0" result="hardAlpha"/>
<feOffset dy="3"/>
<feGaussianBlur stdDeviation="1"/>
<feComposite in2="hardAlpha" operator="out"/>
<feColorMatrix type="matrix" values="0 0 0 0 0 0 0 0 0 0 0 0 0 0 0 0 0 0 0.25 0"/>
<feBlend mode="normal" in2="BackgroundImageFix" result="effect1_dropShadow_985_748"/>
<feBlend mode="normal" in="SourceGraphic" in2="effect1_dropShadow_985_748" result="shape"/>
</filter>
<filter id="filter3_d_985_748" x="78" y="4" width="12" height="20" filterUnits="userSpaceOnUse" color-interpolation-filters="sRGB">
<feFlood flood-opacity="0" result="BackgroundImageFix"/>
<feColorMatrix in="SourceAlpha" type="matrix" values="0 0 0 0 0 0 0 0 0 0 0 0 0 0 0 0 0 0 127 0" result="hardAlpha"/>
<feOffset dy="3"/>
<feGaussianBlur stdDeviation="1"/>
<feComposite in2="hardAlpha" operator="out"/>
<feColorMatrix type="matrix" values="0 0 0 0 0 0 0 0 0 0 0 0 0 0 0 0 0 0 0.25 0"/>
<feBlend mode="normal" in2="BackgroundImageFix" result="effect1_dropShadow_985_748"/>
<feBlend mode="normal" in="SourceGraphic" in2="effect1_dropShadow_985_748" result="shape"/>
</filter>
</defs>
</svg>
