<svg width="60" height="40" viewBox="0 0 60 40" fill="none" xmlns="http://www.w3.org/2000/svg">
<g clip-path="url(#clip0_485_632)">
<path fill-rule="evenodd" clip-rule="evenodd" d="M4.293 4.29296C4.48053 4.10549 4.73484 4.00017 5 4.00017C5.26516 4.00017 5.51947 4.10549 5.707 4.29296L10 8.58596L14.293 4.29296C14.3852 4.19745 14.4956 4.12127 14.6176 4.06886C14.7396 4.01645 14.8708 3.98886 15.0036 3.98771C15.1364 3.98655 15.2681 4.01186 15.391 4.06214C15.5139 4.11242 15.6255 4.18667 15.7194 4.28056C15.8133 4.37446 15.8875 4.48611 15.9378 4.60901C15.9881 4.7319 16.0134 4.86358 16.0123 4.99636C16.0111 5.12914 15.9835 5.26036 15.9311 5.38236C15.8787 5.50437 15.8025 5.61471 15.707 5.70696L11.414 9.99996L15.707 14.293C15.8892 14.4816 15.99 14.7342 15.9877 14.9964C15.9854 15.2586 15.8802 15.5094 15.6948 15.6948C15.5094 15.8802 15.2586 15.9854 14.9964 15.9876C14.7342 15.9899 14.4816 15.8891 14.293 15.707L10 11.414L5.707 15.707C5.5184 15.8891 5.2658 15.9899 5.0036 15.9876C4.7414 15.9854 4.49059 15.8802 4.30518 15.6948C4.11977 15.5094 4.0146 15.2586 4.01233 14.9964C4.01005 14.7342 4.11084 14.4816 4.293 14.293L8.586 9.99996L4.293 5.70696C4.10553 5.51943 4.00021 5.26512 4.00021 4.99996C4.00021 4.73479 4.10553 4.48049 4.293 4.29296Z" fill="#D6D6D6"/>
<path fill-rule="evenodd" clip-rule="evenodd" d="M24.293 4.29296C24.4805 4.10549 24.7348 4.00017 25 4.00017C25.2652 4.00017 25.5195 4.10549 25.707 4.29296L30 8.58596L34.293 4.29296C34.3852 4.19745 34.4956 4.12127 34.6176 4.06886C34.7396 4.01645 34.8708 3.98886 35.0036 3.98771C35.1364 3.98655 35.2681 4.01186 35.391 4.06214C35.5139 4.11242 35.6255 4.18667 35.7194 4.28056C35.8133 4.37446 35.8875 4.48611 35.9378 4.60901C35.9881 4.7319 36.0134 4.86358 36.0123 4.99636C36.0111 5.12914 35.9835 5.26036 35.9311 5.38236C35.8787 5.50437 35.8025 5.61471 35.707 5.70696L31.414 9.99996L35.707 14.293C35.8892 14.4816 35.99 14.7342 35.9877 14.9964C35.9854 15.2586 35.8802 15.5094 35.6948 15.6948C35.5094 15.8802 35.2586 15.9854 34.9964 15.9876C34.7342 15.9899 34.4816 15.8891 34.293 15.707L30 11.414L25.707 15.707C25.5184 15.8891 25.2658 15.9899 25.0036 15.9876C24.7414 15.9854 24.4906 15.8802 24.3052 15.6948C24.1198 15.5094 24.0146 15.2586 24.0123 14.9964C24.01 14.7342 24.1108 14.4816 24.293 14.293L28.586 9.99996L24.293 5.70696C24.1055 5.51943 24.0002 5.26512 24.0002 4.99996C24.0002 4.73479 24.1055 4.48049 24.293 4.29296Z" fill="#D64545"/>
<path fill-rule="evenodd" clip-rule="evenodd" d="M44.293 4.29296C44.4805 4.10549 44.7348 4.00017 45 4.00017C45.2652 4.00017 45.5195 4.10549 45.707 4.29296L50 8.58596L54.293 4.29296C54.3852 4.19745 54.4956 4.12127 54.6176 4.06886C54.7396 4.01645 54.8708 3.98886 55.0036 3.98771C55.1364 3.98655 55.2681 4.01186 55.391 4.06214C55.5139 4.11242 55.6255 4.18667 55.7194 4.28056C55.8133 4.37446 55.8875 4.48611 55.9378 4.60901C55.9881 4.7319 56.0134 4.86358 56.0123 4.99636C56.0111 5.12914 55.9835 5.26036 55.9311 5.38236C55.8787 5.50437 55.8025 5.61471 55.707 5.70696L51.414 9.99996L55.707 14.293C55.8892 14.4816 55.99 14.7342 55.9877 14.9964C55.9854 15.2586 55.8802 15.5094 55.6948 15.6948C55.5094 15.8802 55.2586 15.9854 54.9964 15.9876C54.7342 15.9899 54.4816 15.8891 54.293 15.707L50 11.414L45.707 15.707C45.5184 15.8891 45.2658 15.9899 45.0036 15.9876C44.7414 15.9854 44.4906 15.8802 44.3052 15.6948C44.1198 15.5094 44.0146 15.2586 44.0123 14.9964C44.01 14.7342 44.1108 14.4816 44.293 14.293L48.586 9.99996L44.293 5.70696C44.1055 5.51943 44.0002 5.26512 44.0002 4.99996C44.0002 4.73479 44.1055 4.48049 44.293 4.29296Z" fill="#D64545"/>
<path fill-rule="evenodd" clip-rule="evenodd" d="M10 23C10.2652 23 10.5196 23.1054 10.7071 23.2929C10.8946 23.4804 11 23.7348 11 24V29H16C16.2652 29 16.5196 29.1054 16.7071 29.2929C16.8946 29.4804 17 29.7348 17 30C17 30.2652 16.8946 30.5196 16.7071 30.7071C16.5196 30.8946 16.2652 31 16 31H11V36C11 36.2652 10.8946 36.5196 10.7071 36.7071C10.5196 36.8946 10.2652 37 10 37C9.73478 37 9.48043 36.8946 9.29289 36.7071C9.10536 36.5196 9 36.2652 9 36V31H4C3.73478 31 3.48043 30.8946 3.29289 30.7071C3.10536 30.5196 3 30.2652 3 30C3 29.7348 3.10536 29.4804 3.29289 29.2929C3.48043 29.1054 3.73478 29 4 29H9V24C9 23.7348 9.10536 23.4804 9.29289 23.2929C9.48043 23.1054 9.73478 23 10 23Z" fill="#38AB3D"/>
<path fill-rule="evenodd" clip-rule="evenodd" d="M30 23C30.2652 23 30.5196 23.1054 30.7071 23.2929C30.8946 23.4804 31 23.7348 31 24V29H36C36.2652 29 36.5196 29.1054 36.7071 29.2929C36.8946 29.4804 37 29.7348 37 30C37 30.2652 36.8946 30.5196 36.7071 30.7071C36.5196 30.8946 36.2652 31 36 31H31V36C31 36.2652 30.8946 36.5196 30.7071 36.7071C30.5196 36.8946 30.2652 37 30 37C29.7348 37 29.4804 36.8946 29.2929 36.7071C29.1054 36.5196 29 36.2652 29 36V31H24C23.7348 31 23.4804 30.8946 23.2929 30.7071C23.1054 30.5196 23 30.2652 23 30C23 29.7348 23.1054 29.4804 23.2929 29.2929C23.4804 29.1054 23.7348 29 24 29H29V24C29 23.7348 29.1054 23.4804 29.2929 23.2929C29.4804 23.1054 29.7348 23 30 23Z" fill="#38AB3D"/>
<path fill-rule="evenodd" clip-rule="evenodd" d="M50 23C50.2652 23 50.5196 23.1054 50.7071 23.2929C50.8946 23.4804 51 23.7348 51 24V29H56C56.2652 29 56.5196 29.1054 56.7071 29.2929C56.8946 29.4804 57 29.7348 57 30C57 30.2652 56.8946 30.5196 56.7071 30.7071C56.5196 30.8946 56.2652 31 56 31H51V36C51 36.2652 50.8946 36.5196 50.7071 36.7071C50.5196 36.8946 50.2652 37 50 37C49.7348 37 49.4804 36.8946 49.2929 36.7071C49.1054 36.5196 49 36.2652 49 36V31H44C43.7348 31 43.4804 30.8946 43.2929 30.7071C43.1054 30.5196 43 30.2652 43 30C43 29.7348 43.1054 29.4804 43.2929 29.2929C43.4804 29.1054 43.7348 29 44 29H49V24C49 23.7348 49.1054 23.4804 49.2929 23.2929C49.4804 23.1054 49.7348 23 50 23Z" fill="#38AB3D"/>
</g>
<defs>
<clipPath id="clip0_485_632">
<rect width="60" height="40" fill="white"/>
</clipPath>
</defs>
</svg>
