<svg width="48" height="96" viewBox="0 0 48 96" fill="none" xmlns="http://www.w3.org/2000/svg">
<g clip-path="url(#clip0_542_617)">
<rect x="1" y="1" width="22" height="22" rx="5" stroke="#9CA7AD" stroke-width="2"/>
<g filter="url(#filter0_i_542_617)">
<rect x="24" width="24" height="24" rx="6" fill="#F8F7F3"/>
</g>
<rect x="25" y="1" width="22" height="22" rx="5" stroke="#9CA7AD" stroke-width="2"/>
<rect x="1" y="25" width="22" height="22" rx="5" fill="#3BB4C1"/>
<rect x="1" y="25" width="22" height="22" rx="5" stroke="#3BB4C1" stroke-width="2"/>
<g filter="url(#filter1_d_542_617)">
<path fill-rule="evenodd" clip-rule="evenodd" d="M18.707 31.293C18.8945 31.4806 18.9998 31.7349 18.9998 32C18.9998 32.2652 18.8945 32.5195 18.707 32.707L10.707 40.707C10.5195 40.8945 10.2652 40.9998 10 40.9998C9.73488 40.9998 9.48057 40.8945 9.29304 40.707L5.29304 36.707C5.11088 36.5184 5.01009 36.2658 5.01237 36.0036C5.01465 35.7414 5.11981 35.4906 5.30522 35.3052C5.49063 35.1198 5.74144 35.0146 6.00364 35.0124C6.26584 35.0101 6.51844 35.1109 6.70704 35.293L10 38.586L17.293 31.293C17.4806 31.1056 17.7349 31.0002 18 31.0002C18.2652 31.0002 18.5195 31.1056 18.707 31.293Z" fill="white"/>
</g>
<g filter="url(#filter2_i_542_617)">
<rect x="24" y="24" width="24" height="24" rx="6" fill="#3BB4C1"/>
<rect x="25" y="25" width="22" height="22" rx="5" stroke="#3BB4C1" stroke-width="2"/>
<g filter="url(#filter3_d_542_617)">
<path fill-rule="evenodd" clip-rule="evenodd" d="M42.707 31.293C42.8945 31.4806 42.9998 31.7349 42.9998 32C42.9998 32.2652 42.8945 32.5195 42.707 32.707L34.707 40.707C34.5195 40.8945 34.2652 40.9998 34 40.9998C33.7349 40.9998 33.4806 40.8945 33.293 40.707L29.293 36.707C29.1109 36.5184 29.0101 36.2658 29.0124 36.0036C29.0146 35.7414 29.1198 35.4906 29.3052 35.3052C29.4906 35.1198 29.7414 35.0146 30.0036 35.0124C30.2658 35.0101 30.5184 35.1109 30.707 35.293L34 38.586L41.293 31.293C41.4806 31.1056 41.7349 31.0002 42 31.0002C42.2652 31.0002 42.5195 31.1056 42.707 31.293Z" fill="white"/>
</g>
</g>
<circle cx="12" cy="60" r="11" stroke="#9CA7AD" stroke-width="2"/>
<g filter="url(#filter4_i_542_617)">
<circle cx="36" cy="60" r="12" fill="#F8F7F3"/>
</g>
<circle cx="36" cy="60" r="11" stroke="#9CA7AD" stroke-width="2"/>
<circle cx="12" cy="84" r="11" fill="#3BB4C1" stroke="#3BB4C1" stroke-width="2"/>
<g filter="url(#filter5_d_542_617)">
<path fill-rule="evenodd" clip-rule="evenodd" d="M18.707 79.293C18.8945 79.4806 18.9998 79.7349 18.9998 80C18.9998 80.2652 18.8945 80.5195 18.707 80.707L10.707 88.707C10.5195 88.8945 10.2652 88.9998 10 88.9998C9.73488 88.9998 9.48057 88.8945 9.29304 88.707L5.29304 84.707C5.11088 84.5184 5.01009 84.2658 5.01237 84.0036C5.01465 83.7414 5.11981 83.4906 5.30522 83.3052C5.49063 83.1198 5.74144 83.0146 6.00364 83.0124C6.26584 83.0101 6.51844 83.1109 6.70704 83.293L10 86.586L17.293 79.293C17.4806 79.1056 17.7349 79.0002 18 79.0002C18.2652 79.0002 18.5195 79.1056 18.707 79.293Z" fill="white"/>
</g>
<g filter="url(#filter6_i_542_617)">
<circle cx="36" cy="84" r="11" fill="#3BB4C1" stroke="#3BB4C1" stroke-width="2"/>
<g filter="url(#filter7_d_542_617)">
<path fill-rule="evenodd" clip-rule="evenodd" d="M42.707 79.293C42.8945 79.4806 42.9998 79.7349 42.9998 80C42.9998 80.2652 42.8945 80.5195 42.707 80.707L34.707 88.707C34.5195 88.8945 34.2652 88.9998 34 88.9998C33.7349 88.9998 33.4806 88.8945 33.293 88.707L29.293 84.707C29.1109 84.5184 29.0101 84.2658 29.0124 84.0036C29.0146 83.7414 29.1198 83.4906 29.3052 83.3052C29.4906 83.1198 29.7414 83.0146 30.0036 83.0124C30.2658 83.0101 30.5184 83.1109 30.707 83.293L34 86.586L41.293 79.293C41.4806 79.1056 41.7349 79.0002 42 79.0002C42.2652 79.0002 42.5195 79.1056 42.707 79.293Z" fill="white"/>
</g>
</g>
</g>
<defs>
<filter id="filter0_i_542_617" x="24" y="0" width="24" height="28" filterUnits="userSpaceOnUse" color-interpolation-filters="sRGB">
<feFlood flood-opacity="0" result="BackgroundImageFix"/>
<feBlend mode="normal" in="SourceGraphic" in2="BackgroundImageFix" result="shape"/>
<feColorMatrix in="SourceAlpha" type="matrix" values="0 0 0 0 0 0 0 0 0 0 0 0 0 0 0 0 0 0 127 0" result="hardAlpha"/>
<feOffset dy="4"/>
<feGaussianBlur stdDeviation="2"/>
<feComposite in2="hardAlpha" operator="arithmetic" k2="-1" k3="1"/>
<feColorMatrix type="matrix" values="0 0 0 0 0 0 0 0 0 0 0 0 0 0 0 0 0 0 0.25 0"/>
<feBlend mode="normal" in2="shape" result="effect1_innerShadow_542_617"/>
</filter>
<filter id="filter1_d_542_617" x="3.01233" y="31.0002" width="17.9875" height="14.9995" filterUnits="userSpaceOnUse" color-interpolation-filters="sRGB">
<feFlood flood-opacity="0" result="BackgroundImageFix"/>
<feColorMatrix in="SourceAlpha" type="matrix" values="0 0 0 0 0 0 0 0 0 0 0 0 0 0 0 0 0 0 127 0" result="hardAlpha"/>
<feOffset dy="3"/>
<feGaussianBlur stdDeviation="1"/>
<feComposite in2="hardAlpha" operator="out"/>
<feColorMatrix type="matrix" values="0 0 0 0 0 0 0 0 0 0 0 0 0 0 0 0 0 0 0.25 0"/>
<feBlend mode="normal" in2="BackgroundImageFix" result="effect1_dropShadow_542_617"/>
<feBlend mode="normal" in="SourceGraphic" in2="effect1_dropShadow_542_617" result="shape"/>
</filter>
<filter id="filter2_i_542_617" x="24" y="24" width="24" height="28" filterUnits="userSpaceOnUse" color-interpolation-filters="sRGB">
<feFlood flood-opacity="0" result="BackgroundImageFix"/>
<feBlend mode="normal" in="SourceGraphic" in2="BackgroundImageFix" result="shape"/>
<feColorMatrix in="SourceAlpha" type="matrix" values="0 0 0 0 0 0 0 0 0 0 0 0 0 0 0 0 0 0 127 0" result="hardAlpha"/>
<feOffset dy="4"/>
<feGaussianBlur stdDeviation="2"/>
<feComposite in2="hardAlpha" operator="arithmetic" k2="-1" k3="1"/>
<feColorMatrix type="matrix" values="0 0 0 0 0 0 0 0 0 0 0 0 0 0 0 0 0 0 0.25 0"/>
<feBlend mode="normal" in2="shape" result="effect1_innerShadow_542_617"/>
</filter>
<filter id="filter3_d_542_617" x="27.0123" y="31.0002" width="17.9875" height="14.9995" filterUnits="userSpaceOnUse" color-interpolation-filters="sRGB">
<feFlood flood-opacity="0" result="BackgroundImageFix"/>
<feColorMatrix in="SourceAlpha" type="matrix" values="0 0 0 0 0 0 0 0 0 0 0 0 0 0 0 0 0 0 127 0" result="hardAlpha"/>
<feOffset dy="3"/>
<feGaussianBlur stdDeviation="1"/>
<feComposite in2="hardAlpha" operator="out"/>
<feColorMatrix type="matrix" values="0 0 0 0 0 0 0 0 0 0 0 0 0 0 0 0 0 0 0.25 0"/>
<feBlend mode="normal" in2="BackgroundImageFix" result="effect1_dropShadow_542_617"/>
<feBlend mode="normal" in="SourceGraphic" in2="effect1_dropShadow_542_617" result="shape"/>
</filter>
<filter id="filter4_i_542_617" x="24" y="48" width="24" height="28" filterUnits="userSpaceOnUse" color-interpolation-filters="sRGB">
<feFlood flood-opacity="0" result="BackgroundImageFix"/>
<feBlend mode="normal" in="SourceGraphic" in2="BackgroundImageFix" result="shape"/>
<feColorMatrix in="SourceAlpha" type="matrix" values="0 0 0 0 0 0 0 0 0 0 0 0 0 0 0 0 0 0 127 0" result="hardAlpha"/>
<feOffset dy="4"/>
<feGaussianBlur stdDeviation="2"/>
<feComposite in2="hardAlpha" operator="arithmetic" k2="-1" k3="1"/>
<feColorMatrix type="matrix" values="0 0 0 0 0 0 0 0 0 0 0 0 0 0 0 0 0 0 0.25 0"/>
<feBlend mode="normal" in2="shape" result="effect1_innerShadow_542_617"/>
</filter>
<filter id="filter5_d_542_617" x="3.01233" y="79.0002" width="17.9875" height="14.9995" filterUnits="userSpaceOnUse" color-interpolation-filters="sRGB">
<feFlood flood-opacity="0" result="BackgroundImageFix"/>
<feColorMatrix in="SourceAlpha" type="matrix" values="0 0 0 0 0 0 0 0 0 0 0 0 0 0 0 0 0 0 127 0" result="hardAlpha"/>
<feOffset dy="3"/>
<feGaussianBlur stdDeviation="1"/>
<feComposite in2="hardAlpha" operator="out"/>
<feColorMatrix type="matrix" values="0 0 0 0 0 0 0 0 0 0 0 0 0 0 0 0 0 0 0.25 0"/>
<feBlend mode="normal" in2="BackgroundImageFix" result="effect1_dropShadow_542_617"/>
<feBlend mode="normal" in="SourceGraphic" in2="effect1_dropShadow_542_617" result="shape"/>
</filter>
<filter id="filter6_i_542_617" x="24" y="72" width="24" height="28" filterUnits="userSpaceOnUse" color-interpolation-filters="sRGB">
<feFlood flood-opacity="0" result="BackgroundImageFix"/>
<feBlend mode="normal" in="SourceGraphic" in2="BackgroundImageFix" result="shape"/>
<feColorMatrix in="SourceAlpha" type="matrix" values="0 0 0 0 0 0 0 0 0 0 0 0 0 0 0 0 0 0 127 0" result="hardAlpha"/>
<feOffset dy="4"/>
<feGaussianBlur stdDeviation="2"/>
<feComposite in2="hardAlpha" operator="arithmetic" k2="-1" k3="1"/>
<feColorMatrix type="matrix" values="0 0 0 0 0 0 0 0 0 0 0 0 0 0 0 0 0 0 0.25 0"/>
<feBlend mode="normal" in2="shape" result="effect1_innerShadow_542_617"/>
</filter>
<filter id="filter7_d_542_617" x="27.0123" y="79.0002" width="17.9875" height="14.9995" filterUnits="userSpaceOnUse" color-interpolation-filters="sRGB">
<feFlood flood-opacity="0" result="BackgroundImageFix"/>
<feColorMatrix in="SourceAlpha" type="matrix" values="0 0 0 0 0 0 0 0 0 0 0 0 0 0 0 0 0 0 127 0" result="hardAlpha"/>
<feOffset dy="3"/>
<feGaussianBlur stdDeviation="1"/>
<feComposite in2="hardAlpha" operator="out"/>
<feColorMatrix type="matrix" values="0 0 0 0 0 0 0 0 0 0 0 0 0 0 0 0 0 0 0.25 0"/>
<feBlend mode="normal" in2="BackgroundImageFix" result="effect1_dropShadow_542_617"/>
<feBlend mode="normal" in="SourceGraphic" in2="effect1_dropShadow_542_617" result="shape"/>
</filter>
<clipPath id="clip0_542_617">
<rect width="48" height="96" fill="white"/>
</clipPath>
</defs>
</svg>
